<svg width="23" height="25" viewBox="0 0 23 25" fill="none" xmlns="http://www.w3.org/2000/svg">
<path fill-rule="evenodd" clip-rule="evenodd" d="M10.516 0.876751C10.9044 0.660224 11.3821 0.660224 11.7705 0.876751C13.6858 1.95269 19.4562 5.19168 21.3737 6.26762C21.7621 6.48638 22.0009 6.88819 22.0009 7.32348C22.0009 9.47536 22.0009 15.9533 22.0009 18.1052C22.0009 18.5405 21.7621 18.9423 21.3737 19.1611C19.4562 20.237 13.688 23.476 11.7705 24.5519C11.3821 24.7685 10.9044 24.7685 10.516 24.5519C8.59853 23.476 2.8304 20.237 0.912905 19.1611C0.524495 18.9423 0.285645 18.5405 0.285645 18.1052C0.285645 15.9533 0.285645 9.47536 0.285645 7.32348C0.285645 6.88819 0.524495 6.48638 0.912905 6.26762C2.82817 5.19168 8.60076 1.95269 10.516 0.876751Z" fill="#00549D"/>
<path fill-rule="evenodd" clip-rule="evenodd" d="M0.45976 18.6588C0.307967 18.4557 0.285645 18.2637 0.285645 18.0026C0.285645 15.8641 0.285645 9.42403 0.285645 7.28331C0.285645 6.85026 0.524495 6.45068 0.910673 6.23416C2.82147 5.16491 8.57174 1.94378 10.4825 0.874536C10.8687 0.658009 11.3933 0.662473 11.7795 0.879001C13.6903 1.94825 19.4204 5.14036 21.3312 6.2096C21.4853 6.29666 21.6036 6.40158 21.7085 6.53997L0.45976 18.6588Z" fill="#0086D4"/>
<path fill-rule="evenodd" clip-rule="evenodd" d="M11.1434 4.71387C15.5588 4.71387 19.1438 8.29885 19.1438 12.7142C19.1438 17.1296 15.5588 20.7146 11.1434 20.7146C6.72805 20.7146 3.14307 17.1296 3.14307 12.7142C3.14307 8.29885 6.72805 4.71387 11.1434 4.71387ZM11.1434 8.71405C13.3511 8.71405 15.1436 10.5065 15.1436 12.7142C15.1436 14.9219 13.3511 16.7144 11.1434 16.7144C8.93574 16.7144 7.14325 14.9219 7.14325 12.7142C7.14325 10.5065 8.93574 8.71405 11.1434 8.71405Z" fill="white"/>
<path fill-rule="evenodd" clip-rule="evenodd" d="M21.7065 6.54443C22.0012 6.82123 21.9967 7.23643 21.9967 7.56457C21.9967 9.73431 21.9788 15.902 22.0012 18.0695C22.0034 18.2972 21.9275 18.5361 21.8159 18.7146L10.9114 12.7144L21.7065 6.54443Z" fill="#0075C0"/>
<path fill-rule="evenodd" clip-rule="evenodd" d="M15.1433 11H16.2862V14.4287H15.1433V11Z" fill="white"/>
<path fill-rule="evenodd" clip-rule="evenodd" d="M19.1438 11H20.2867V14.4287H19.1438V11Z" fill="white"/>
<path fill-rule="evenodd" clip-rule="evenodd" d="M14.0007 12.1431H17.4295V13.286H14.0007V12.1431Z" fill="white"/>
<path fill-rule="evenodd" clip-rule="evenodd" d="M18.0007 12.1431H21.4295V13.286H18.0007V12.1431Z" fill="white"/>
</svg>
