<svg width="18" height="25" viewBox="0 0 18 25" fill="none" xmlns="http://www.w3.org/2000/svg">
<path d="M5.71772 18.6167C5.71772 18.6167 4.79781 19.1517 6.37239 19.3327C8.27996 19.5503 9.25489 19.5191 11.357 19.1212C11.357 19.1212 11.9097 19.4678 12.6816 19.7679C7.9691 21.7876 2.01633 19.6509 5.71772 18.6167" fill="#5382A1"/>
<path d="M5.14204 15.981C5.14204 15.981 4.11027 16.7447 5.68602 16.9077C7.72374 17.1179 9.33298 17.1351 12.1176 16.5989C12.1176 16.5989 12.5027 16.9894 13.1083 17.2029C7.41068 18.869 1.06453 17.3343 5.14204 15.981" fill="#5382A1"/>
<path d="M9.99642 11.5103C11.1576 12.8472 9.69134 14.0502 9.69134 14.0502C9.69134 14.0502 12.6397 12.5281 11.2856 10.6222C10.021 8.84477 9.0512 7.96165 14.3013 4.91675C14.3013 4.91675 6.06035 6.97497 9.99642 11.5103" fill="#F8981D"/>
<path d="M16.2291 20.5659C16.2291 20.5659 16.9099 21.1268 15.4794 21.5608C12.7593 22.3848 4.15809 22.6336 1.7687 21.5936C0.909776 21.2199 2.5205 20.7014 3.02717 20.5926C3.55558 20.478 3.85755 20.4993 3.85755 20.4993C2.90234 19.8264 -2.31654 21.8206 1.20662 22.3917C10.8148 23.9499 18.7214 21.6901 16.2291 20.5659" fill="#5382A1"/>
<path d="M6.16012 13.2505C6.16012 13.2505 1.78499 14.2897 4.61078 14.667C5.80392 14.8268 8.1824 14.7906 10.3979 14.605C12.2085 14.4523 14.0266 14.1275 14.0266 14.1275C14.0266 14.1275 13.3882 14.4009 12.9263 14.7163C8.48339 15.8848 -0.0994122 15.3412 2.37147 14.146C4.46109 13.1359 6.16012 13.2505 6.16012 13.2505" fill="#5382A1"/>
<path d="M14.0085 17.6372C18.5249 15.2903 16.4367 13.0349 14.9791 13.3388C14.6219 13.4131 14.4626 13.4776 14.4626 13.4776C14.4626 13.4776 14.5952 13.2698 14.8485 13.1799C17.732 12.1661 19.9496 16.1698 13.9177 17.7554C13.9177 17.7555 13.9876 17.693 14.0085 17.6372" fill="#5382A1"/>
<path d="M11.2858 0C11.2858 0 13.787 2.50209 8.91345 6.34959C5.00535 9.43596 8.02228 11.1957 8.91183 13.2063C6.6306 11.1481 4.95649 9.33623 6.07962 7.64992C7.7281 5.17456 12.295 3.97442 11.2858 0" fill="#F8981D"/>
<path d="M6.604 23.9968C10.9392 24.2743 17.5963 23.8428 17.754 21.7915C17.754 21.7915 17.4509 22.5691 14.1712 23.1867C10.471 23.883 5.90741 23.8017 3.20068 23.3554C3.20075 23.3554 3.75479 23.814 6.604 23.9968" fill="#5382A1"/>
</svg>
