<svg width="24" height="25" viewBox="0 0 24 25" fill="none" xmlns="http://www.w3.org/2000/svg">
<path fill-rule="evenodd" clip-rule="evenodd" d="M18.8571 24.7142H5.14286C2.31429 24.7142 0 22.3999 0 19.5714V5.85709C0 3.02852 2.31429 0.714233 5.14286 0.714233H18.8571C21.6857 0.714233 24 3.02852 24 5.85709V19.5714C24 22.3999 21.6857 24.7142 18.8571 24.7142Z" fill="#6267AB"/>
<path fill-rule="evenodd" clip-rule="evenodd" d="M2.2871 16.9957C2.24425 16.9957 2.20353 16.9764 2.1761 16.9434C2.14867 16.9099 2.13753 16.8667 2.14567 16.8242L3.5051 9.8308C3.51839 9.76309 3.57753 9.71423 3.64653 9.71423H6.57582C7.49682 9.71423 8.1821 9.96409 8.61282 10.4574C9.04567 10.9532 9.17939 11.6462 9.0101 12.5167C8.9411 12.8715 8.82282 13.2011 8.65782 13.4959C8.49282 13.7917 8.27467 14.0647 8.00939 14.3085C7.69225 14.6055 7.33267 14.8211 6.94267 14.9479C6.55867 15.0731 6.06539 15.1365 5.47696 15.1365H4.29067L3.95167 16.8791C3.93882 16.9468 3.87967 16.9957 3.81067 16.9957H2.2871ZM5.31286 13.745C5.89186 13.745 6.32428 13.6383 6.59771 13.4278C6.86814 13.2195 7.055 12.8587 7.15271 12.3551C7.24443 11.8845 7.20928 11.5563 7.04943 11.3788C6.88614 11.1975 6.53257 11.1058 5.999 11.1058H5.07371L4.56114 13.745H5.31286Z" fill="white"/>
<path fill-rule="evenodd" clip-rule="evenodd" d="M12.8748 15.2814C12.8319 15.2814 12.7912 15.2621 12.7638 15.2291C12.7363 15.1957 12.7252 15.1524 12.7333 15.1099L13.3346 12.0157C13.392 11.7212 13.3779 11.5099 13.2952 11.4208C13.2442 11.3664 13.092 11.2747 12.642 11.2747H11.553L10.797 15.1648C10.7838 15.2325 10.7246 15.2814 10.6556 15.2814H9.14404C9.10118 15.2814 9.06046 15.2621 9.03304 15.2291C9.00561 15.1957 8.99446 15.1519 9.00261 15.1099L10.362 8.11651C10.3753 8.0488 10.4345 7.99994 10.5035 7.99994H12.0146C12.0579 7.99994 12.0986 8.01922 12.126 8.05222C12.153 8.08565 12.1642 8.12937 12.156 8.17137L11.8282 9.85951H12.9999C13.8926 9.85951 14.4982 10.0168 14.8505 10.3404C15.21 10.6708 15.3219 11.1988 15.1839 11.9107L14.5513 15.1648C14.5385 15.2325 14.4793 15.2814 14.4103 15.2814H12.8748Z" fill="white"/>
<path fill-rule="evenodd" clip-rule="evenodd" d="M15.144 16.9957C15.1012 16.9957 15.0605 16.9764 15.033 16.9434C15.0056 16.9099 14.9945 16.8667 15.0026 16.8242L16.362 9.8308C16.3753 9.76309 16.4345 9.71423 16.5035 9.71423H19.4328C20.3538 9.71423 21.0386 9.96409 21.4698 10.4574C21.9026 10.9532 22.0363 11.6458 21.867 12.5167C21.798 12.8715 21.6798 13.2011 21.5148 13.4959C21.3498 13.7917 21.1316 14.0647 20.8663 14.3085C20.5492 14.6055 20.1896 14.8211 19.7996 14.9479C19.4156 15.0731 18.9223 15.1365 18.3339 15.1365H17.1476L16.809 16.8791C16.7958 16.9468 16.7366 16.9957 16.6676 16.9957H15.144ZM18.1699 13.745C18.7489 13.745 19.1813 13.6383 19.4547 13.4278C19.7251 13.2195 19.912 12.8587 20.0097 12.3551C20.1014 11.8845 20.0663 11.5563 19.9064 11.3788C19.7431 11.1975 19.3896 11.1058 18.856 11.1058H17.9307L17.4181 13.745H18.1699Z" fill="white"/>
</svg>
